# xmcd
#
# Track frame offsets: 
#        150
#        24945
#        47270
#        70505
#        98325
#        121588
#        137758
#        159907
#        183883
#        209610
#        226175
#
# Disc length: 3363 seconds
#
# Revision: 0
# Processed by: cddbd v1.5.2PL0 Copyright (c) Steve Scherf et al.
# Submitted via: ExactAudioCopy v0.99pb5
#
DISCID=750d210b
DTITLE=Tony Spinner - Crosstown Sessions
DYEAR=1996
DGENRE=Blues
TTITLE0=Inhuman Nature
TTITLE1=Yesterday
TTITLE2=Muddy Waters
TTITLE3=Born To Love
TTITLE4=Checkered Shirt Wizard
TTITLE5=IRS Blues
TTITLE6=You Got Your Mark on Me
TTITLE7=Cocktail Sauce
TTITLE8=Don't Believe A Word
TTITLE9=You Are Who You Are
TTITLE10=Wound Up in the Clink
EXTD=
EXTT0=
EXTT1=
EXTT2=
EXTT3=
EXTT4=
EXTT5=
EXTT6=
EXTT7=
EXTT8=
EXTT9=
EXTT10=
PLAYORDER=
